<svg width="621" height="119" viewBox="0 0 621 119" fill="none" xmlns="http://www.w3.org/2000/svg">
<mask id="path-1-outside-1_3738_3977" maskUnits="userSpaceOnUse" x="6" y="14" width="601" height="87" fill="black">
<rect fill="white" x="6" y="14" width="601" height="87"/>
<path d="M81.4886 47.7273H60.6591C60.5114 46.0038 60.1174 44.4403 59.4773 43.0369C58.8617 41.6335 58 40.4271 56.892 39.4176C55.8087 38.3835 54.4915 37.5956 52.9403 37.054C51.3892 36.4877 49.6288 36.2045 47.6591 36.2045C44.2121 36.2045 41.2945 37.0417 38.9062 38.7159C36.5426 40.3901 34.7453 42.7907 33.5142 45.9176C32.3078 49.0445 31.7045 52.7992 31.7045 57.1818C31.7045 61.8106 32.3201 65.6884 33.5511 68.8153C34.8068 71.9176 36.6165 74.2566 38.9801 75.8324C41.3438 77.3835 44.1875 78.1591 47.5114 78.1591C49.4072 78.1591 51.1061 77.9252 52.608 77.4574C54.1098 76.965 55.4148 76.2633 56.5227 75.3523C57.6307 74.4413 58.5294 73.3456 59.2188 72.0653C59.9328 70.7604 60.4129 69.2955 60.6591 67.6705L81.4886 67.8182C81.2424 71.0189 80.3438 74.2812 78.7926 77.6051C77.2415 80.9044 75.0379 83.9574 72.1818 86.7642C69.3504 89.5464 65.8419 91.7869 61.6562 93.4858C57.4706 95.1847 52.608 96.0341 47.0682 96.0341C40.125 96.0341 33.8958 94.5445 28.3807 91.5653C22.8902 88.5862 18.5445 84.2036 15.3438 78.4176C12.1676 72.6316 10.5795 65.553 10.5795 57.1818C10.5795 48.7614 12.2045 41.6705 15.4545 35.9091C18.7045 30.1231 23.0871 25.7528 28.6023 22.7983C34.1174 19.8191 40.2727 18.3295 47.0682 18.3295C51.8447 18.3295 56.2396 18.982 60.2528 20.2869C64.2661 21.5919 67.7869 23.5 70.8153 26.0114C73.8438 28.4981 76.2813 31.5634 78.1278 35.2074C79.9744 38.8513 81.0947 43.0246 81.4886 47.7273ZM160.237 19.3636V95H139.998V35.6136H114.441V95H94.2024V19.3636H160.237ZM193.023 95H170.864L195.83 19.3636H223.898L248.864 95H226.705L210.159 40.1932H209.568L193.023 95ZM188.886 65.1591H230.545V80.5227H188.886V65.1591ZM323.207 47.7273H302.378C302.23 46.0038 301.836 44.4403 301.196 43.0369C300.58 41.6335 299.719 40.4271 298.611 39.4176C297.527 38.3835 296.21 37.5956 294.659 37.054C293.108 36.4877 291.348 36.2045 289.378 36.2045C285.931 36.2045 283.013 37.0417 280.625 38.7159C278.261 40.3901 276.464 42.7907 275.233 45.9176C274.027 49.0445 273.423 52.7992 273.423 57.1818C273.423 61.8106 274.039 65.6884 275.27 68.8153C276.526 71.9176 278.335 74.2566 280.699 75.8324C283.063 77.3835 285.906 78.1591 289.23 78.1591C291.126 78.1591 292.825 77.9252 294.327 77.4574C295.829 76.965 297.134 76.2633 298.241 75.3523C299.349 74.4413 300.248 73.3456 300.938 72.0653C301.652 70.7604 302.132 69.2955 302.378 67.6705L323.207 67.8182C322.961 71.0189 322.063 74.2812 320.511 77.6051C318.96 80.9044 316.757 83.9574 313.901 86.7642C311.069 89.5464 307.561 91.7869 303.375 93.4858C299.189 95.1847 294.327 96.0341 288.787 96.0341C281.844 96.0341 275.615 94.5445 270.099 91.5653C264.609 88.5862 260.263 84.2036 257.062 78.4176C253.886 72.6316 252.298 65.553 252.298 57.1818C252.298 48.7614 253.923 41.6705 257.173 35.9091C260.423 30.1231 264.806 25.7528 270.321 22.7983C275.836 19.8191 281.991 18.3295 288.787 18.3295C293.563 18.3295 297.958 18.982 301.972 20.2869C305.985 21.5919 309.506 23.5 312.534 26.0114C315.563 28.4981 318 31.5634 319.847 35.2074C321.693 38.8513 322.813 43.0246 323.207 47.7273ZM332.523 19.3636H353.058V58.9545H353.648L380.535 19.3636H397.967V95H377.433V55.2614H376.989L349.66 95H332.523V19.3636ZM407.68 95V19.3636H460.862V35.9091H428.214V44.7727H435.896C442.248 44.7727 447.8 45.7945 452.552 47.8381C457.328 49.8816 461.034 52.7623 463.668 56.4801C466.327 60.1979 467.657 64.5682 467.657 69.5909C467.657 74.6136 466.327 79.0331 463.668 82.8494C461.034 86.6657 457.328 89.6449 452.552 91.7869C447.8 93.929 442.248 95 435.896 95H407.68ZM428.214 78.8977H435.896C438.358 78.8977 440.426 78.4915 442.1 77.679C443.799 76.8665 445.079 75.7462 445.941 74.3182C446.827 72.8902 447.271 71.2652 447.271 69.4432C447.271 66.858 446.298 64.7159 444.353 63.017C442.408 61.2936 439.589 60.4318 435.896 60.4318H428.214V78.8977ZM548.187 57.1818C548.187 65.6023 546.549 72.7055 543.275 78.4915C540 84.2528 535.581 88.6231 530.016 91.6023C524.452 94.5568 518.247 96.0341 511.403 96.0341C504.509 96.0341 498.28 94.5445 492.715 91.5653C487.175 88.5616 482.768 84.179 479.494 78.4176C476.244 72.6316 474.619 65.553 474.619 57.1818C474.619 48.7614 476.244 41.6705 479.494 35.9091C482.768 30.1231 487.175 25.7528 492.715 22.7983C498.28 19.8191 504.509 18.3295 511.403 18.3295C518.247 18.3295 524.452 19.8191 530.016 22.7983C535.581 25.7528 540 30.1231 543.275 35.9091C546.549 41.6705 548.187 48.7614 548.187 57.1818ZM527.062 57.1818C527.062 52.6515 526.459 48.8352 525.252 45.733C524.07 42.6061 522.31 40.2424 519.971 38.642C517.656 37.017 514.8 36.2045 511.403 36.2045C508.005 36.2045 505.137 37.017 502.798 38.642C500.483 40.2424 498.723 42.6061 497.516 45.733C496.335 48.8352 495.744 52.6515 495.744 57.1818C495.744 61.7121 496.335 65.5407 497.516 68.6676C498.723 71.7699 500.483 74.1335 502.798 75.7585C505.137 77.3589 508.005 78.1591 511.403 78.1591C514.8 78.1591 517.656 77.3589 519.971 75.7585C522.31 74.1335 524.07 71.7699 525.252 68.6676C526.459 65.5407 527.062 61.7121 527.062 57.1818ZM602.338 19.3636L600.418 71.3636H583.577L581.656 19.3636H602.338ZM591.997 96.1818C589.141 96.1818 586.691 95.1847 584.648 93.1903C582.629 91.1714 581.632 88.7216 581.656 85.8409C581.632 83.0341 582.629 80.6335 584.648 78.6392C586.691 76.6449 589.141 75.6477 591.997 75.6477C594.705 75.6477 597.094 76.6449 599.162 78.6392C601.255 80.6335 602.313 83.0341 602.338 85.8409C602.313 87.7614 601.809 89.5095 600.824 91.0852C599.864 92.6364 598.608 93.8797 597.057 94.8153C595.506 95.7263 593.819 96.1818 591.997 96.1818Z"/>
</mask>
<path d="M81.4886 47.7273V51.7273H85.8377L85.4747 47.3934L81.4886 47.7273ZM60.6591 47.7273L56.6737 48.0689L56.9873 51.7273H60.6591V47.7273ZM59.4773 43.0369L55.8141 44.6436L55.8259 44.6703L55.838 44.6969L59.4773 43.0369ZM56.892 39.4176L54.1301 42.311L54.1637 42.3431L54.1981 42.3744L56.892 39.4176ZM52.9403 37.054L51.5686 40.8114L51.595 40.8211L51.6216 40.8303L52.9403 37.054ZM38.9062 38.7159L36.6101 35.4406L36.6021 35.4462L36.5942 35.4518L38.9062 38.7159ZM33.5142 45.9176L29.7923 44.4523L29.7873 44.465L29.7823 44.4778L33.5142 45.9176ZM33.5511 68.8153L29.8292 70.2807L29.8362 70.2984L29.8433 70.3161L33.5511 68.8153ZM38.9801 75.8324L36.7613 79.1606L36.7734 79.1686L36.7855 79.1766L38.9801 75.8324ZM52.608 77.4574L53.7975 81.2764L53.8259 81.2676L53.8542 81.2583L52.608 77.4574ZM56.5227 75.3523L59.0631 78.442L59.0632 78.442L56.5227 75.3523ZM59.2188 72.0653L55.7097 70.1453L55.7032 70.1571L55.6969 70.1689L59.2188 72.0653ZM60.6591 67.6705L60.6875 63.6706L57.2232 63.646L56.7042 67.0712L60.6591 67.6705ZM81.4886 67.8182L85.4769 68.125L85.8058 63.8487L81.517 63.8183L81.4886 67.8182ZM78.7926 77.6051L82.4125 79.307L82.4174 79.2967L78.7926 77.6051ZM72.1818 86.7642L74.9853 89.6173L74.9855 89.6171L72.1818 86.7642ZM61.6562 93.4858L60.1519 89.7795L61.6562 93.4858ZM28.3807 91.5653L26.473 95.0811L26.4796 95.0847L28.3807 91.5653ZM15.3438 78.4176L11.8373 80.3424L11.8436 80.3539L15.3438 78.4176ZM15.4545 35.9091L18.9385 37.8744L18.942 37.868L15.4545 35.9091ZM28.6023 22.7983L30.4912 26.3242L30.5034 26.3177L28.6023 22.7983ZM60.2528 20.2869L61.4897 16.483H61.4897L60.2528 20.2869ZM70.8153 26.0114L68.262 29.0904L68.2694 29.0966L68.2769 29.1027L70.8153 26.0114ZM78.1278 35.2074L74.5598 37.0155V37.0155L78.1278 35.2074ZM81.4886 43.7273H60.6591V51.7273H81.4886V43.7273ZM64.6445 47.3857C64.4624 45.261 63.9682 43.2441 63.1166 41.3769L55.838 44.6969C56.2666 45.6366 56.5604 46.7465 56.6737 48.0689L64.6445 47.3857ZM63.1404 41.4303C62.3051 39.5258 61.1174 37.8561 59.586 36.4608L54.1981 42.3744C54.8826 42.998 55.4184 43.7413 55.8141 44.6436L63.1404 41.4303ZM59.6539 36.5242C58.1194 35.0594 56.2959 33.9889 54.2591 33.2776L51.6216 40.8303C52.687 41.2024 53.498 41.7076 54.1301 42.311L59.6539 36.5242ZM54.3121 33.2965C52.2458 32.5422 50.0088 32.2045 47.6591 32.2045V40.2045C49.2488 40.2045 50.5326 40.4332 51.5686 40.8114L54.3121 33.2965ZM47.6591 32.2045C43.5437 32.2045 39.7866 33.2138 36.6101 35.4406L41.2024 41.9912C42.8025 40.8695 44.8806 40.2045 47.6591 40.2045V32.2045ZM36.5942 35.4518C33.499 37.6442 31.2616 40.7201 29.7923 44.4523L37.2361 47.3829C38.2289 44.8613 39.5862 43.1361 41.2183 41.98L36.5942 35.4518ZM29.7823 44.4778C28.3534 48.1813 27.7045 52.4505 27.7045 57.1818H35.7045C35.7045 53.148 36.2621 49.9078 37.2461 47.3575L29.7823 44.4778ZM27.7045 57.1818C27.7045 62.1357 28.3593 66.5471 29.8292 70.2807L37.2731 67.35C36.2809 64.8298 35.7045 61.4855 35.7045 57.1818H27.7045ZM29.8433 70.3161C31.3456 74.0275 33.6168 77.0642 36.7613 79.1606L41.1989 72.5042C39.6162 71.449 38.2681 69.8077 37.2589 67.3146L29.8433 70.3161ZM36.7855 79.1766C39.9088 81.2263 43.5474 82.1591 47.5114 82.1591V74.1591C44.8276 74.1591 42.7787 73.5408 41.1747 72.4882L36.7855 79.1766ZM47.5114 82.1591C49.7307 82.1591 51.841 81.8858 53.7975 81.2764L51.4184 73.6384C50.3712 73.9646 49.0837 74.1591 47.5114 74.1591V82.1591ZM53.8542 81.2583C55.7798 80.627 57.5344 79.6989 59.0631 78.442L53.9823 72.2626C53.2951 72.8276 52.4399 73.303 51.3618 73.6565L53.8542 81.2583ZM59.0632 78.442C60.5783 77.1962 61.8082 75.6934 62.7406 73.9617L55.6969 70.1689C55.2505 70.9979 54.683 71.6864 53.9823 72.2626L59.0632 78.442ZM62.7278 73.9854C63.6889 72.2288 64.3049 70.3092 64.614 68.2697L56.7042 67.0712C56.5208 68.2817 56.1766 69.292 55.7097 70.1453L62.7278 73.9854ZM60.6307 71.6704L81.4603 71.8181L81.517 63.8183L60.6875 63.6706L60.6307 71.6704ZM77.5004 67.5114C77.296 70.1692 76.5442 72.9642 75.1679 75.9136L82.4174 79.2967C84.1433 75.5983 85.1889 71.8687 85.4769 68.125L77.5004 67.5114ZM75.1727 75.9032C73.8422 78.7332 71.9293 81.4041 69.3781 83.9113L74.9855 89.6171C78.1465 86.5107 80.6407 83.0755 82.4125 79.307L75.1727 75.9032ZM69.3783 83.9111C66.9679 86.2795 63.9193 88.2503 60.1519 89.7795L63.1606 97.1921C67.7644 95.3235 71.7328 92.8133 74.9853 89.6173L69.3783 83.9111ZM60.1519 89.7795C56.539 91.2459 52.2056 92.0341 47.0682 92.0341V100.034C53.0103 100.034 58.4023 99.1234 63.1606 97.1921L60.1519 89.7795ZM47.0682 92.0341C40.7159 92.0341 35.152 90.6768 30.2818 88.046L26.4796 95.0847C32.6397 98.4122 39.5341 100.034 47.0682 100.034V92.0341ZM30.2884 88.0496C25.5084 85.4559 21.698 81.6407 18.8439 76.4814L11.8436 80.3539C15.391 86.7665 20.2719 91.7164 26.473 95.0811L30.2884 88.0496ZM18.8502 76.4928C16.0734 71.4344 14.5795 65.0569 14.5795 57.1818H6.57955C6.57955 66.0492 8.2618 73.8289 11.8373 80.3424L18.8502 76.4928ZM14.5795 57.1818C14.5795 49.2657 16.1071 42.8937 18.9385 37.8744L11.9706 33.9438C8.30204 40.4472 6.57955 48.257 6.57955 57.1818H14.5795ZM18.942 37.868C21.8429 32.7037 25.6885 28.897 30.4912 26.3242L26.7134 19.2724C20.4857 22.6086 15.5662 27.5425 11.9671 33.9502L18.942 37.868ZM30.5034 26.3177C35.3861 23.6801 40.8792 22.3295 47.0682 22.3295V14.3295C39.6662 14.3295 32.8487 15.9582 26.7012 19.2789L30.5034 26.3177ZM47.0682 22.3295C51.4792 22.3295 55.4509 22.9317 59.016 24.0909L61.4897 16.483C57.0282 15.0323 52.2102 14.3295 47.0682 14.3295V22.3295ZM59.016 24.0909C62.5838 25.251 65.6502 26.9245 68.262 29.0904L73.3687 22.9323C69.9237 20.0755 65.9484 17.9327 61.4897 16.483L59.016 24.0909ZM68.2769 29.1027C70.8587 31.2227 72.9529 33.8445 74.5598 37.0155L81.6959 33.3993C79.6096 29.2823 76.8288 25.7735 73.3538 22.92L68.2769 29.1027ZM74.5598 37.0155C76.1401 40.1339 77.1451 43.7934 77.5026 48.0612L85.4747 47.3934C85.0443 42.2558 83.8088 37.5687 81.6959 33.3993L74.5598 37.0155ZM160.237 19.3636H164.237V15.3636H160.237V19.3636ZM160.237 95V99H164.237V95H160.237ZM139.998 95H135.998V99H139.998V95ZM139.998 35.6136H143.998V31.6136H139.998V35.6136ZM114.441 35.6136V31.6136H110.441V35.6136H114.441ZM114.441 95V99H118.441V95H114.441ZM94.2024 95H90.2024V99H94.2024V95ZM94.2024 19.3636V15.3636H90.2024V19.3636H94.2024ZM156.237 19.3636V95H164.237V19.3636H156.237ZM160.237 91H139.998V99H160.237V91ZM143.998 95V35.6136H135.998V95H143.998ZM139.998 31.6136H114.441V39.6136H139.998V31.6136ZM110.441 35.6136V95H118.441V35.6136H110.441ZM114.441 91H94.2024V99H114.441V91ZM98.2024 95V19.3636H90.2024V95H98.2024ZM94.2024 23.3636H160.237V15.3636H94.2024V23.3636ZM193.023 95V99H195.993L196.852 96.156L193.023 95ZM170.864 95L167.065 93.7462L165.331 99H170.864V95ZM195.83 19.3636V15.3636H192.938L192.031 18.1099L195.83 19.3636ZM223.898 19.3636L227.696 18.1099L226.79 15.3636H223.898V19.3636ZM248.864 95V99H254.396L252.662 93.7462L248.864 95ZM226.705 95L222.875 96.156L223.734 99H226.705V95ZM210.159 40.1932L213.988 39.0372L213.13 36.1932H210.159V40.1932ZM209.568 40.1932V36.1932H206.597L205.739 39.0372L209.568 40.1932ZM188.886 65.1591V61.1591H184.886V65.1591H188.886ZM230.545 65.1591H234.545V61.1591H230.545V65.1591ZM230.545 80.5227V84.5227H234.545V80.5227H230.545ZM188.886 80.5227H184.886V84.5227H188.886V80.5227ZM193.023 91H170.864V99H193.023V91ZM174.662 96.2538L199.628 20.6174L192.031 18.1099L167.065 93.7462L174.662 96.2538ZM195.83 23.3636H223.898V15.3636H195.83V23.3636ZM220.099 20.6174L245.065 96.2538L252.662 93.7462L227.696 18.1099L220.099 20.6174ZM248.864 91H226.705V99H248.864V91ZM230.534 93.844L213.988 39.0372L206.33 41.3492L222.875 96.156L230.534 93.844ZM210.159 36.1932H209.568V44.1932H210.159V36.1932ZM205.739 39.0372L189.193 93.844L196.852 96.156L213.397 41.3492L205.739 39.0372ZM188.886 69.1591H230.545V61.1591H188.886V69.1591ZM226.545 65.1591V80.5227H234.545V65.1591H226.545ZM230.545 76.5227H188.886V84.5227H230.545V76.5227ZM192.886 80.5227V65.1591H184.886V80.5227H192.886ZM323.207 47.7273V51.7273H327.556L327.193 47.3934L323.207 47.7273ZM302.378 47.7273L298.392 48.0689L298.706 51.7273H302.378V47.7273ZM301.196 43.0369L297.533 44.6436L297.545 44.6703L297.557 44.6969L301.196 43.0369ZM298.611 39.4176L295.849 42.311L295.883 42.3431L295.917 42.3744L298.611 39.4176ZM294.659 37.054L293.287 40.8114L293.314 40.8211L293.34 40.8303L294.659 37.054ZM280.625 38.7159L278.329 35.4406L278.321 35.4462L278.313 35.4518L280.625 38.7159ZM275.233 45.9176L271.511 44.4523L271.506 44.465L271.501 44.4778L275.233 45.9176ZM275.27 68.8153L271.548 70.2807L271.555 70.2984L271.562 70.3161L275.27 68.8153ZM280.699 75.8324L278.48 79.1606L278.492 79.1686L278.504 79.1766L280.699 75.8324ZM294.327 77.4574L295.516 81.2764L295.545 81.2676L295.573 81.2583L294.327 77.4574ZM298.241 75.3523L300.782 78.442V78.442L298.241 75.3523ZM300.938 72.0653L297.428 70.1453L297.422 70.1571L297.416 70.1689L300.938 72.0653ZM302.378 67.6705L302.406 63.6706L298.942 63.646L298.423 67.0712L302.378 67.6705ZM323.207 67.8182L327.196 68.125L327.525 63.8487L323.236 63.8183L323.207 67.8182ZM320.511 77.6051L324.131 79.307L324.136 79.2967L320.511 77.6051ZM313.901 86.7642L316.704 89.6173L316.704 89.6171L313.901 86.7642ZM303.375 93.4858L301.871 89.7795L303.375 93.4858ZM270.099 91.5653L268.192 95.0811L268.198 95.0847L270.099 91.5653ZM257.062 78.4176L253.556 80.3424L253.562 80.3539L257.062 78.4176ZM257.173 35.9091L260.657 37.8744L260.661 37.868L257.173 35.9091ZM270.321 22.7983L272.21 26.3242L272.222 26.3177L270.321 22.7983ZM301.972 20.2869L303.208 16.483L301.972 20.2869ZM312.534 26.0114L309.981 29.0904L309.988 29.0966L309.996 29.1027L312.534 26.0114ZM319.847 35.2074L316.279 37.0155V37.0155L319.847 35.2074ZM323.207 43.7273H302.378V51.7273H323.207V43.7273ZM306.363 47.3857C306.181 45.261 305.687 43.2441 304.835 41.3769L297.557 44.6969C297.985 45.6366 298.279 46.7465 298.392 48.0689L306.363 47.3857ZM304.859 41.4303C304.024 39.5258 302.836 37.8561 301.305 36.4608L295.917 42.3744C296.601 42.998 297.137 43.7413 297.533 44.6436L304.859 41.4303ZM301.373 36.5242C299.838 35.0594 298.015 33.9889 295.978 33.2776L293.34 40.8303C294.406 41.2024 295.217 41.7076 295.849 42.311L301.373 36.5242ZM296.031 33.2965C293.965 32.5422 291.728 32.2045 289.378 32.2045V40.2045C290.968 40.2045 292.251 40.4332 293.287 40.8114L296.031 33.2965ZM289.378 32.2045C285.262 32.2045 281.505 33.2138 278.329 35.4406L282.921 41.9912C284.521 40.8695 286.599 40.2045 289.378 40.2045V32.2045ZM278.313 35.4518C275.218 37.6442 272.98 40.7201 271.511 44.4523L278.955 47.3829C279.948 44.8613 281.305 43.1361 282.937 41.98L278.313 35.4518ZM271.501 44.4778C270.072 48.1813 269.423 52.4505 269.423 57.1818H277.423C277.423 53.148 277.981 49.9078 278.965 47.3575L271.501 44.4778ZM269.423 57.1818C269.423 62.1357 270.078 66.5471 271.548 70.2807L278.992 67.35C278 64.8298 277.423 61.4855 277.423 57.1818H269.423ZM271.562 70.3161C273.064 74.0275 275.336 77.0642 278.48 79.1606L282.918 72.5042C281.335 71.449 279.987 69.8077 278.978 67.3146L271.562 70.3161ZM278.504 79.1766C281.628 81.2263 285.266 82.1591 289.23 82.1591V74.1591C286.546 74.1591 284.497 73.5408 282.893 72.4882L278.504 79.1766ZM289.23 82.1591C291.449 82.1591 293.56 81.8858 295.516 81.2764L293.137 73.6384C292.09 73.9646 290.802 74.1591 289.23 74.1591V82.1591ZM295.573 81.2583C297.499 80.627 299.253 79.6989 300.782 78.442L295.701 72.2626C295.014 72.8276 294.159 73.303 293.081 73.6565L295.573 81.2583ZM300.782 78.442C302.297 77.1962 303.527 75.6934 304.459 73.9617L297.416 70.1689C296.969 70.9979 296.402 71.6864 295.701 72.2626L300.782 78.442ZM304.447 73.9854C305.408 72.2288 306.024 70.3092 306.333 68.2697L298.423 67.0712C298.24 68.2817 297.895 69.292 297.428 70.1453L304.447 73.9854ZM302.349 71.6704L323.179 71.8181L323.236 63.8183L302.406 63.6706L302.349 71.6704ZM319.219 67.5114C319.015 70.1692 318.263 72.9642 316.887 75.9136L324.136 79.2967C325.862 75.5983 326.908 71.8687 327.196 68.125L319.219 67.5114ZM316.891 75.9032C315.561 78.7332 313.648 81.4041 311.097 83.9113L316.704 89.6171C319.865 86.5107 322.359 83.0755 324.131 79.307L316.891 75.9032ZM311.097 83.9111C308.687 86.2795 305.638 88.2503 301.871 89.7795L304.879 97.1921C309.483 95.3235 313.452 92.8133 316.704 89.6173L311.097 83.9111ZM301.871 89.7795C298.258 91.2459 293.924 92.0341 288.787 92.0341V100.034C294.729 100.034 300.121 99.1234 304.879 97.1921L301.871 89.7795ZM288.787 92.0341C282.435 92.0341 276.871 90.6768 272.001 88.046L268.198 95.0847C274.358 98.4122 281.253 100.034 288.787 100.034V92.0341ZM272.007 88.0496C267.227 85.4559 263.417 81.6407 260.563 76.4814L253.562 80.3539C257.11 86.7665 261.991 91.7164 268.192 95.0811L272.007 88.0496ZM260.569 76.4928C257.792 71.4344 256.298 65.0569 256.298 57.1818H248.298C248.298 66.0492 249.981 73.8289 253.556 80.3424L260.569 76.4928ZM256.298 57.1818C256.298 49.2657 257.826 42.8937 260.657 37.8744L253.689 33.9438C250.021 40.4472 248.298 48.257 248.298 57.1818H256.298ZM260.661 37.868C263.562 32.7037 267.407 28.897 272.21 26.3242L268.432 19.2724C262.204 22.6086 257.285 27.5425 253.686 33.9502L260.661 37.868ZM272.222 26.3177C277.105 23.6801 282.598 22.3295 288.787 22.3295V14.3295C281.385 14.3295 274.567 15.9582 268.42 19.2789L272.222 26.3177ZM288.787 22.3295C293.198 22.3295 297.17 22.9317 300.735 24.0909L303.208 16.483C298.747 15.0323 293.929 14.3295 288.787 14.3295V22.3295ZM300.735 24.0909C304.303 25.251 307.369 26.9245 309.981 29.0904L315.087 22.9323C311.642 20.0755 307.667 17.9327 303.208 16.483L300.735 24.0909ZM309.996 29.1027C312.577 31.2227 314.672 33.8445 316.279 37.0155L323.415 33.3993C321.328 29.2823 318.548 25.7735 315.073 22.92L309.996 29.1027ZM316.279 37.0155C317.859 40.1339 318.864 43.7934 319.221 48.0612L327.193 47.3934C326.763 42.2558 325.528 37.5687 323.415 33.3993L316.279 37.0155ZM332.523 19.3636V15.3636H328.523V19.3636H332.523ZM353.058 19.3636H357.058V15.3636H353.058V19.3636ZM353.058 58.9545H349.058V62.9545H353.058V58.9545ZM353.648 58.9545V62.9545H355.767L356.958 61.2018L353.648 58.9545ZM380.535 19.3636V15.3636H378.416L377.226 17.1164L380.535 19.3636ZM397.967 19.3636H401.967V15.3636H397.967V19.3636ZM397.967 95V99H401.967V95H397.967ZM377.433 95H373.433V99H377.433V95ZM377.433 55.2614H381.433V51.2614H377.433V55.2614ZM376.989 55.2614V51.2614H374.886L373.694 52.9947L376.989 55.2614ZM349.66 95V99H351.764L352.956 97.2666L349.66 95ZM332.523 95H328.523V99H332.523V95ZM332.523 23.3636H353.058V15.3636H332.523V23.3636ZM349.058 19.3636V58.9545H357.058V19.3636H349.058ZM353.058 62.9545H353.648V54.9545H353.058V62.9545ZM356.958 61.2018L383.844 21.6108L377.226 17.1164L350.339 56.7073L356.958 61.2018ZM380.535 23.3636H397.967V15.3636H380.535V23.3636ZM393.967 19.3636V95H401.967V19.3636H393.967ZM397.967 91H377.433V99H397.967V91ZM381.433 95V55.2614H373.433V95H381.433ZM377.433 51.2614H376.989V59.2614H377.433V51.2614ZM373.694 52.9947L346.364 92.7334L352.956 97.2666L380.285 57.528L373.694 52.9947ZM349.66 91H332.523V99H349.66V91ZM336.523 95V19.3636H328.523V95H336.523ZM407.68 95H403.68V99H407.68V95ZM407.68 19.3636V15.3636H403.68V19.3636H407.68ZM460.862 19.3636H464.862V15.3636H460.862V19.3636ZM460.862 35.9091V39.9091H464.862V35.9091H460.862ZM428.214 35.9091V31.9091H424.214V35.9091H428.214ZM428.214 44.7727H424.214V48.7727H428.214V44.7727ZM452.552 47.8381L450.972 51.5127L450.978 51.5156L452.552 47.8381ZM463.668 56.4801L460.405 58.7928L460.41 58.8L460.415 58.8071L463.668 56.4801ZM463.668 82.8494L460.386 80.5627L460.381 80.5698L460.376 80.577L463.668 82.8494ZM452.552 91.7869L450.915 88.1371L450.908 88.1403L452.552 91.7869ZM428.214 78.8977H424.214V82.8977H428.214V78.8977ZM442.1 77.679L440.374 74.0704L440.364 74.0754L440.354 74.0804L442.1 77.679ZM445.941 74.3182L442.542 72.2087L442.529 72.23L442.516 72.2515L445.941 74.3182ZM444.353 63.017L441.7 66.0109L441.711 66.0203L441.722 66.0297L444.353 63.017ZM428.214 60.4318V56.4318H424.214V60.4318H428.214ZM411.68 95V19.3636H403.68V95H411.68ZM407.68 23.3636H460.862V15.3636H407.68V23.3636ZM456.862 19.3636V35.9091H464.862V19.3636H456.862ZM460.862 31.9091H428.214V39.9091H460.862V31.9091ZM424.214 35.9091V44.7727H432.214V35.9091H424.214ZM428.214 48.7727H435.896V40.7727H428.214V48.7727ZM435.896 48.7727C441.825 48.7727 446.819 49.7268 450.972 51.5127L454.132 44.1635C448.781 41.8622 442.671 40.7727 435.896 40.7727V48.7727ZM450.978 51.5156C455.174 53.3105 458.254 55.758 460.405 58.7928L466.932 54.1674C463.814 49.7666 459.483 46.4528 454.125 44.1605L450.978 51.5156ZM460.415 58.8071C462.54 61.7789 463.657 65.3161 463.657 69.5909H471.657C471.657 63.8203 470.114 58.6169 466.922 54.1531L460.415 58.8071ZM463.657 69.5909C463.657 73.8646 462.54 77.4716 460.386 80.5627L466.95 85.1362C470.115 80.5947 471.657 75.3627 471.657 69.5909H463.657ZM460.376 80.577C458.209 83.7168 455.112 86.2548 450.915 88.1371L454.189 95.4367C459.544 93.035 463.859 89.6147 466.96 85.1218L460.376 80.577ZM450.908 88.1403C446.773 90.0043 441.802 91 435.896 91V99C442.693 99 448.827 97.8537 454.196 95.4336L450.908 88.1403ZM435.896 91H407.68V99H435.896V91ZM428.214 82.8977H435.896V74.8977H428.214V82.8977ZM435.896 82.8977C438.776 82.8977 441.482 82.4253 443.847 81.2776L440.354 74.0804C439.37 74.5577 437.94 74.8977 435.896 74.8977V82.8977ZM443.826 81.2875C446.136 80.1829 448.05 78.5656 449.366 76.3848L442.516 72.2515C442.109 72.9269 441.462 73.5501 440.374 74.0704L443.826 81.2875ZM449.34 76.4276C450.652 74.3132 451.271 71.9456 451.271 69.4432H443.271C443.271 70.5847 443.003 71.4671 442.542 72.2087L449.34 76.4276ZM451.271 69.4432C451.271 65.7046 449.8 62.4638 446.984 60.0044L441.722 66.0297C442.796 66.9681 443.271 68.0113 443.271 69.4432H451.271ZM447.006 60.0232C444.072 57.4241 440.158 56.4318 435.896 56.4318V64.4318C439.019 64.4318 440.743 65.163 441.7 66.0109L447.006 60.0232ZM435.896 56.4318H428.214V64.4318H435.896V56.4318ZM424.214 60.4318V78.8977H432.214V60.4318H424.214ZM543.275 78.4915L546.752 80.468L546.756 80.4617L543.275 78.4915ZM530.016 91.6023L531.892 95.1352L531.904 95.1287L530.016 91.6023ZM492.715 91.5653L490.809 95.0817L490.818 95.0867L490.827 95.0917L492.715 91.5653ZM479.494 78.4176L476.006 80.3765L476.011 80.3854L476.016 80.3942L479.494 78.4176ZM479.494 35.9091L476.012 33.9389L476.01 33.9438L479.494 35.9091ZM492.715 22.7983L494.598 26.3277L494.603 26.3247L492.715 22.7983ZM530.016 22.7983L528.128 26.3247L528.141 26.3312L530.016 22.7983ZM543.275 35.9091L539.794 37.8793L539.797 37.8856L543.275 35.9091ZM525.252 45.733L521.51 47.1471L521.517 47.165L521.524 47.1827L525.252 45.733ZM519.971 38.642L517.672 41.9157L517.692 41.9296L517.712 41.9433L519.971 38.642ZM502.798 38.642L505.073 41.9321L505.08 41.9271L502.798 38.642ZM497.516 45.733L493.784 44.2931L493.781 44.301L493.778 44.309L497.516 45.733ZM497.516 68.6676L493.775 70.0818L493.781 70.0996L493.788 70.1174L497.516 68.6676ZM502.798 75.7585L500.499 79.0322L500.519 79.0461L500.539 79.0598L502.798 75.7585ZM519.971 75.7585L522.246 79.0486L522.253 79.0435L519.971 75.7585ZM525.252 68.6676L521.52 67.2278L521.517 67.2357L521.514 67.2436L525.252 68.6676ZM544.187 57.1818C544.187 65.0925 542.649 71.4761 539.794 76.5213L546.756 80.4617C550.45 73.9349 552.187 66.112 552.187 57.1818H544.187ZM539.797 76.5149C536.876 81.6544 532.993 85.4712 528.128 88.0759L531.904 95.1287C538.168 91.775 543.124 86.8513 546.752 80.468L539.797 76.5149ZM528.141 88.0694C523.203 90.6912 517.651 92.0341 511.403 92.0341V100.034C518.844 100.034 525.701 98.4225 531.892 95.1351L528.141 88.0694ZM511.403 92.0341C505.105 92.0341 499.534 90.6791 494.603 88.039L490.827 95.0917C497.025 98.4099 503.912 100.034 511.403 100.034V92.0341ZM494.622 88.049C489.774 85.4204 485.896 81.5876 482.971 76.4411L476.016 80.3942C479.64 86.7704 484.577 91.7028 490.809 95.0817L494.622 88.049ZM482.981 76.4587C480.144 71.4078 478.619 65.0432 478.619 57.1818H470.619C470.619 66.0629 472.343 73.8554 476.006 80.3765L482.981 76.4587ZM478.619 57.1818C478.619 49.2657 480.146 42.8937 482.978 37.8744L476.01 33.9438C472.341 40.4472 470.619 48.257 470.619 57.1818H478.619ZM482.975 37.8793C485.898 32.7135 489.768 28.9034 494.598 26.3277L490.833 19.2689C484.583 22.6023 479.638 27.5327 476.012 33.9389L482.975 37.8793ZM494.603 26.3247C499.534 23.6845 505.105 22.3295 511.403 22.3295V14.3295C503.912 14.3295 497.025 15.9537 490.827 19.2719L494.603 26.3247ZM511.403 22.3295C517.646 22.3295 523.193 23.6823 528.128 26.3247L531.904 19.2719C525.711 15.956 518.849 14.3295 511.403 14.3295V22.3295ZM528.141 26.3312C532.994 28.9082 536.873 32.718 539.794 37.8793L546.756 33.9389C543.128 27.5282 538.168 22.5975 531.892 19.2654L528.141 26.3312ZM539.797 37.8856C542.649 42.9025 544.187 49.2703 544.187 57.1818H552.187C552.187 48.2524 550.45 40.4384 546.752 33.9325L539.797 37.8856ZM531.062 57.1818C531.062 52.3231 530.418 47.9816 528.98 44.2832L521.524 47.1827C522.499 49.6889 523.062 52.98 523.062 57.1818H531.062ZM528.994 44.3188C527.576 40.5669 525.359 37.482 522.23 35.3408L517.712 41.9433C519.261 43.0029 520.565 44.6452 521.51 47.1471L528.994 44.3188ZM522.269 35.3684C519.155 33.182 515.454 32.2045 511.403 32.2045V40.2045C514.147 40.2045 516.158 40.8521 517.672 41.9157L522.269 35.3684ZM511.403 32.2045C507.35 32.2045 503.645 33.1825 500.515 35.357L505.08 41.9271C506.628 40.8516 508.66 40.2045 511.403 40.2045V32.2045ZM500.523 35.352C497.43 37.4905 495.224 40.5632 493.784 44.2931L501.248 47.1728C502.222 44.6489 503.536 42.9944 505.073 41.9321L500.523 35.352ZM493.778 44.309C492.373 47.9987 491.744 52.3306 491.744 57.1818H499.744C499.744 52.9725 500.296 49.6718 501.254 47.1569L493.778 44.309ZM491.744 57.1818C491.744 62.0347 492.373 66.3738 493.775 70.0818L501.258 67.2534C500.296 64.7076 499.744 61.3896 499.744 57.1818H491.744ZM493.788 70.1174C495.229 73.8224 497.431 76.878 500.499 79.0322L505.096 72.4849C503.535 71.389 502.216 69.7174 501.244 67.2178L493.788 70.1174ZM500.539 79.0598C503.666 81.1995 507.362 82.1591 511.403 82.1591V74.1591C508.648 74.1591 506.607 73.5183 505.056 72.4573L500.539 79.0598ZM511.403 82.1591C515.442 82.1591 519.135 81.2001 522.246 79.0486L517.696 72.4685C516.178 73.5178 514.159 74.1591 511.403 74.1591V82.1591ZM522.253 79.0435C525.358 76.8865 527.57 73.8186 528.99 70.0916L521.514 67.2436C520.57 69.7211 519.262 71.3805 517.689 72.4735L522.253 79.0435ZM528.984 70.1075C530.418 66.3908 531.062 62.0422 531.062 57.1818H523.062C523.062 61.3821 522.499 64.6906 521.52 67.2278L528.984 70.1075ZM602.338 19.3636L606.335 19.5113L606.489 15.3636H602.338V19.3636ZM600.418 71.3636V75.3636H604.273L604.415 71.5113L600.418 71.3636ZM583.577 71.3636L579.579 71.5113L579.722 75.3636H583.577V71.3636ZM581.656 19.3636V15.3636H577.506L577.659 19.5113L581.656 19.3636ZM584.648 93.1903L581.819 96.0188L581.837 96.036L581.854 96.053L584.648 93.1903ZM581.656 85.8409L585.656 85.8751L585.656 85.8405L585.656 85.8058L581.656 85.8409ZM584.648 78.6392L581.854 75.7765L581.845 75.785L581.837 75.7935L584.648 78.6392ZM599.162 78.6392L596.385 81.5186L596.394 81.5268L596.402 81.5349L599.162 78.6392ZM602.338 85.8409L606.338 85.8922L606.338 85.849L606.338 85.8058L602.338 85.8409ZM600.824 91.0852L597.432 88.9652L597.427 88.9725L597.423 88.9798L600.824 91.0852ZM597.057 94.8153L599.083 98.2645L599.103 98.2526L599.123 98.2405L597.057 94.8153ZM598.341 19.216L596.42 71.216L604.415 71.5113L606.335 19.5113L598.341 19.216ZM600.418 67.3636H583.577V75.3636H600.418V67.3636ZM587.574 71.216L585.654 19.216L577.659 19.5113L579.579 71.5113L587.574 71.216ZM581.656 23.3636H602.338V15.3636H581.656V23.3636ZM591.997 92.1818C590.185 92.1818 588.738 91.5926 587.441 90.3276L581.854 96.053C584.645 98.7767 588.097 100.182 591.997 100.182V92.1818ZM587.476 90.3619C586.223 89.1091 585.641 87.6939 585.656 85.8751L577.656 85.8067C577.623 89.7493 579.034 93.2337 581.819 96.0188L587.476 90.3619ZM585.656 85.8058C585.641 84.0939 586.2 82.7286 587.459 81.4849L581.837 75.7935C579.058 78.5384 577.622 81.9743 577.656 85.876L585.656 85.8058ZM587.441 81.5019C588.738 80.2369 590.185 79.6477 591.997 79.6477V71.6477C588.097 71.6477 584.645 73.0528 581.854 75.7765L587.441 81.5019ZM591.997 79.6477C593.602 79.6477 595.013 80.1949 596.385 81.5186L601.938 75.7598C599.175 73.0949 595.809 71.6477 591.997 71.6477V79.6477ZM596.402 81.5349C597.738 82.8078 598.323 84.1871 598.338 85.876L606.338 85.8058C606.303 81.8811 604.771 78.4592 601.921 75.7435L596.402 81.5349ZM598.338 85.7896C598.323 87.0037 598.015 88.032 597.432 88.9652L604.216 93.2052C605.602 90.987 606.304 88.519 606.338 85.8922L598.338 85.7896ZM597.423 88.9798C596.794 89.9953 595.995 90.7848 594.991 91.3902L599.123 98.2405C601.221 96.9747 602.933 95.2774 604.225 93.1907L597.423 88.9798ZM595.031 91.3662C594.102 91.9117 593.117 92.1818 591.997 92.1818V100.182C594.522 100.182 596.909 99.541 599.083 98.2645L595.031 91.3662Z" fill="black" mask="url(#path-1-outside-1_3738_3977)"/>
<path d="M75.4886 52.7273H54.6591C54.5114 51.0038 54.1174 49.4403 53.4773 48.0369C52.8617 46.6335 52 45.4271 50.892 44.4176C49.8087 43.3835 48.4915 42.5956 46.9403 42.054C45.3892 41.4877 43.6288 41.2045 41.6591 41.2045C38.2121 41.2045 35.2945 42.0417 32.9062 43.7159C30.5426 45.3901 28.7453 47.7907 27.5142 50.9176C26.3078 54.0445 25.7045 57.7992 25.7045 62.1818C25.7045 66.8106 26.3201 70.6884 27.5511 73.8153C28.8068 76.9176 30.6165 79.2566 32.9801 80.8324C35.3438 82.3835 38.1875 83.1591 41.5114 83.1591C43.4072 83.1591 45.1061 82.9252 46.608 82.4574C48.1098 81.965 49.4148 81.2633 50.5227 80.3523C51.6307 79.4413 52.5294 78.3456 53.2188 77.0653C53.9328 75.7604 54.4129 74.2955 54.6591 72.6705L75.4886 72.8182C75.2424 76.0189 74.3438 79.2812 72.7926 82.6051C71.2415 85.9044 69.0379 88.9574 66.1818 91.7642C63.3504 94.5464 59.8419 96.7869 55.6562 98.4858C51.4706 100.185 46.608 101.034 41.0682 101.034C34.125 101.034 27.8958 99.5445 22.3807 96.5653C16.8902 93.5862 12.5445 89.2036 9.34375 83.4176C6.16761 77.6316 4.57955 70.553 4.57955 62.1818C4.57955 53.7614 6.20455 46.6705 9.45455 40.9091C12.7045 35.1231 17.0871 30.7528 22.6023 27.7983C28.1174 24.8191 34.2727 23.3295 41.0682 23.3295C45.8447 23.3295 50.2396 23.982 54.2528 25.2869C58.2661 26.5919 61.7869 28.5 64.8153 31.0114C67.8438 33.4981 70.2813 36.5634 72.1278 40.2074C73.9744 43.8513 75.0947 48.0246 75.4886 52.7273ZM154.237 24.3636V100H133.998V40.6136H108.441V100H88.2024V24.3636H154.237ZM187.023 100H164.864L189.83 24.3636H217.898L242.864 100H220.705L204.159 45.1932H203.568L187.023 100ZM182.886 70.1591H224.545V85.5227H182.886V70.1591ZM317.207 52.7273H296.378C296.23 51.0038 295.836 49.4403 295.196 48.0369C294.58 46.6335 293.719 45.4271 292.611 44.4176C291.527 43.3835 290.21 42.5956 288.659 42.054C287.108 41.4877 285.348 41.2045 283.378 41.2045C279.931 41.2045 277.013 42.0417 274.625 43.7159C272.261 45.3901 270.464 47.7907 269.233 50.9176C268.027 54.0445 267.423 57.7992 267.423 62.1818C267.423 66.8106 268.039 70.6884 269.27 73.8153C270.526 76.9176 272.335 79.2566 274.699 80.8324C277.063 82.3835 279.906 83.1591 283.23 83.1591C285.126 83.1591 286.825 82.9252 288.327 82.4574C289.829 81.965 291.134 81.2633 292.241 80.3523C293.349 79.4413 294.248 78.3456 294.938 77.0653C295.652 75.7604 296.132 74.2955 296.378 72.6705L317.207 72.8182C316.961 76.0189 316.063 79.2812 314.511 82.6051C312.96 85.9044 310.757 88.9574 307.901 91.7642C305.069 94.5464 301.561 96.7869 297.375 98.4858C293.189 100.185 288.327 101.034 282.787 101.034C275.844 101.034 269.615 99.5445 264.099 96.5653C258.609 93.5862 254.263 89.2036 251.062 83.4176C247.886 77.6316 246.298 70.553 246.298 62.1818C246.298 53.7614 247.923 46.6705 251.173 40.9091C254.423 35.1231 258.806 30.7528 264.321 27.7983C269.836 24.8191 275.991 23.3295 282.787 23.3295C287.563 23.3295 291.958 23.982 295.972 25.2869C299.985 26.5919 303.506 28.5 306.534 31.0114C309.563 33.4981 312 36.5634 313.847 40.2074C315.693 43.8513 316.813 48.0246 317.207 52.7273ZM326.523 24.3636H347.058V63.9545H347.648L374.535 24.3636H391.967V100H371.433V60.2614H370.989L343.66 100H326.523V24.3636ZM401.68 100V24.3636H454.862V40.9091H422.214V49.7727H429.896C436.248 49.7727 441.8 50.7945 446.552 52.8381C451.328 54.8816 455.034 57.7623 457.668 61.4801C460.327 65.1979 461.657 69.5682 461.657 74.5909C461.657 79.6136 460.327 84.0331 457.668 87.8494C455.034 91.6657 451.328 94.6449 446.552 96.7869C441.8 98.929 436.248 100 429.896 100H401.68ZM422.214 83.8977H429.896C432.358 83.8977 434.426 83.4915 436.1 82.679C437.799 81.8665 439.079 80.7462 439.941 79.3182C440.827 77.8902 441.271 76.2652 441.271 74.4432C441.271 71.858 440.298 69.7159 438.353 68.017C436.408 66.2936 433.589 65.4318 429.896 65.4318H422.214V83.8977ZM542.187 62.1818C542.187 70.6023 540.549 77.7055 537.275 83.4915C534 89.2528 529.581 93.6231 524.016 96.6023C518.452 99.5568 512.247 101.034 505.403 101.034C498.509 101.034 492.28 99.5445 486.715 96.5653C481.175 93.5616 476.768 89.179 473.494 83.4176C470.244 77.6316 468.619 70.553 468.619 62.1818C468.619 53.7614 470.244 46.6705 473.494 40.9091C476.768 35.1231 481.175 30.7528 486.715 27.7983C492.28 24.8191 498.509 23.3295 505.403 23.3295C512.247 23.3295 518.452 24.8191 524.016 27.7983C529.581 30.7528 534 35.1231 537.275 40.9091C540.549 46.6705 542.187 53.7614 542.187 62.1818ZM521.062 62.1818C521.062 57.6515 520.459 53.8352 519.252 50.733C518.07 47.6061 516.31 45.2424 513.971 43.642C511.656 42.017 508.8 41.2045 505.403 41.2045C502.005 41.2045 499.137 42.017 496.798 43.642C494.483 45.2424 492.723 47.6061 491.516 50.733C490.335 53.8352 489.744 57.6515 489.744 62.1818C489.744 66.7121 490.335 70.5407 491.516 73.6676C492.723 76.7699 494.483 79.1335 496.798 80.7585C499.137 82.3589 502.005 83.1591 505.403 83.1591C508.8 83.1591 511.656 82.3589 513.971 80.7585C516.31 79.1335 518.07 76.7699 519.252 73.6676C520.459 70.5407 521.062 66.7121 521.062 62.1818ZM596.338 24.3636L594.418 76.3636H577.577L575.656 24.3636H596.338ZM585.997 101.182C583.141 101.182 580.691 100.185 578.648 98.1903C576.629 96.1714 575.632 93.7216 575.656 90.8409C575.632 88.0341 576.629 85.6335 578.648 83.6392C580.691 81.6449 583.141 80.6477 585.997 80.6477C588.705 80.6477 591.094 81.6449 593.162 83.6392C595.255 85.6335 596.313 88.0341 596.338 90.8409C596.313 92.7614 595.809 94.5095 594.824 96.0852C593.864 97.6364 592.608 98.8797 591.057 99.8153C589.506 100.726 587.819 101.182 585.997 101.182Z" fill="black"/>
</svg>
