<svg width="60" height="60" viewBox="0 0 60 60" fill="none" xmlns="http://www.w3.org/2000/svg">
<g clip-path="url(#clip0_2521_205)">
<path d="M60 30C60 13.4308 46.5692 0 30 0C13.4308 0 0 13.4308 0 30C0 46.5692 13.4308 60 30 60C46.5692 60 60 46.5692 60 30Z" fill="#F8604A"/>
<path d="M40.4999 48.0508H34.4491V16.8H31.4007C26.1991 16.8 23.6007 19.4008 23.6007 23.3008C23.6007 27.6508 25.3499 29.7992 29.2499 32.4L32.3007 34.5508L23.6491 48H16.7007L24.9507 35.85C20.1991 32.4 17.6007 29.3492 17.6007 23.7C17.6007 16.7492 22.3499 12 31.4999 12H40.4999V48.0508Z" fill="white"/>
</g>
<defs>
<clipPath id="clip0_2521_205">
<rect width="60" height="60" fill="white"/>
</clipPath>
</defs>
</svg>
