<?xml version="1.0" encoding="utf-8"?><svg viewBox="0 0 152 132" xmlns="http://www.w3.org/2000/svg" xmlns:xlink="http://www.w3.org/1999/xlink">
    <style>:root>svg{display:none}:root>svg:target{display:block}</style>
    <svg viewBox="0 0 60 60" id="close-btn" xmlns="http://www.w3.org/2000/svg">
        <path d="M0 0h60v60H0zM16.82 43.69l26.87-26.87m-27.376-.005l26.871 26.87"/>
    </svg>
    <svg xmlns="http://www.w3.org/2000/svg" id="close" viewBox="0 0 20 20">
       <path d="M2.94297 18.9429C2.42227 19.4636 1.57805 19.4636 1.05735 18.9429C0.536655 18.4222 0.536655 17.578 1.05735 17.0573L8.11454 10.0001L1.05735 2.94289C0.536654 2.42219 0.536654 1.57797 1.05735 1.05727C1.57805 0.536573 2.42227 0.536573 2.94297 1.05727L10.0002 8.11446L17.0574 1.05727C17.5781 0.536573 18.4223 0.536573 18.943 1.05727C19.4637 1.57797 19.4637 2.42219 18.943 2.94289L11.8858 10.0001L18.943 17.0573C19.4637 17.578 19.4637 18.4222 18.943 18.9429C18.4223 19.4636 17.5781 19.4636 17.0574 18.9429L10.0002 11.8857L2.94297 18.9429Z"/>
    </svg>
    <svg viewBox="0 0 114 132" id="lazy" xmlns="http://www.w3.org/2000/svg">
        <path d="M11.1 101L57 21.5l45.899 79.5H11.101z"/><path d="M2.828 57.5L57 3.328 111.172 57.5 57 111.672 2.828 57.5z"/>
    </svg>
    <svg viewBox="0 0 16 16" id="more" xmlns="http://www.w3.org/2000/svg">
        <g clip-path="url(#ja)"><path d="M2.656 2.657L13.969 13.97m0 0V2.657m0 11.314H2.656"/></g><defs><clipPath id="ja"><path d="M0 0h16v16H0z"/></clipPath></defs>
    </svg>
    <svg viewBox="0 0 25 21" id="telegram" xmlns="http://www.w3.org/2000/svg">
        <path fill-rule="evenodd" clip-rule="evenodd" d="M15.13 3.134c-2.236.93-6.708 2.856-13.412 5.777-1.089.433-1.66.857-1.712 1.27-.088.702.79.978 1.982 1.352.163.052.332.103.504.16 1.175.382 2.754.829 3.575.846.745.015 1.577-.291 2.495-.92 6.264-4.23 9.497-6.367 9.7-6.413.144-.033.343-.075.478.046.134.119.12.345.107.406-.088.37-3.527 3.569-5.31 5.225a54.16 54.16 0 00-1.029.966c-.18.186-.364.364-.54.535-1.092 1.05-1.909 1.84.046 3.128.94.619 1.69 1.13 2.44 1.64.818.558 1.635 1.114 2.693 1.808.268.176.525.358.776.537.953.68 1.81 1.29 2.867 1.194.614-.058 1.25-.635 1.572-2.358.761-4.075 2.26-12.899 2.607-16.537a4.046 4.046 0 00-.039-.905.97.97 0 00-.33-.622c-.273-.225-.699-.273-.89-.269-.865.016-2.191.477-8.58 3.134z"/>
    </svg>
    <svg xmlns="http://www.w3.org/2000/svg" id="del" viewBox="0 0 20 20" fill="none">
        <path d="M17.5 4.98307C14.725 4.70807 11.9333 4.56641 9.15 4.56641C7.5 4.56641 5.85 4.64974 4.2 4.81641L2.5 4.98307" stroke-width="1.5" stroke-linecap="round" stroke-linejoin="round"/>
        <path d="M7.0835 4.14102L7.26683 3.04935C7.40016 2.25768 7.50016 1.66602 8.9085 1.66602H11.0918C12.5002 1.66602 12.6085 2.29102 12.7335 3.05768L12.9168 4.14102" stroke-width="1.5" stroke-linecap="round" stroke-linejoin="round"/>
        <path d="M15.7082 7.61719L15.1665 16.0089C15.0748 17.3172 14.9998 18.3339 12.6748 18.3339H7.32484C4.99984 18.3339 4.92484 17.3172 4.83317 16.0089L4.2915 7.61719" stroke-width="1.5" stroke-linecap="round" stroke-linejoin="round"/>
        <path d="M8.6084 13.75H11.3834" stroke-width="1.5" stroke-linecap="round" stroke-linejoin="round"/>
        <path d="M7.9165 10.416H12.0832" stroke-width="1.5" stroke-linecap="round" stroke-linejoin="round"/>
    </svg>
    <svg xmlns="http://www.w3.org/2000/svg" id="chevron-top" viewBox="0 0 24 24">
        <path d="M5.27848 14.7926C5.37138 14.8863 5.48198 14.9607 5.60388 15.0115C5.72578 15.0622 5.85648 15.0884 5.98848 15.0884C6.12048 15.0884 6.25118 15.0622 6.37308 15.0115C6.49488 14.9607 6.60548 14.8863 6.69848 14.7926L11.2785 10.2125C11.3714 10.1188 11.482 10.0444 11.6039 9.99364C11.7258 9.94294 11.8565 9.91674 11.9885 9.91674C12.1205 9.91674 12.2512 9.94294 12.3731 9.99364C12.4949 10.0444 12.6055 10.1188 12.6985 10.2125L17.2785 14.7926C17.3714 14.8863 17.482 14.9607 17.6039 15.0115C17.7257 15.0622 17.8564 15.0884 17.9885 15.0884C18.1205 15.0884 18.2512 15.0622 18.373 15.0115C18.4949 14.9607 18.6055 14.8863 18.6985 14.7926C18.8847 14.6052 18.9893 14.3518 18.9893 14.0876C18.9893 13.8234 18.8847 13.5699 18.6985 13.3826L14.1085 8.79254C13.546 8.23074 12.7835 7.91524 11.9885 7.91524C11.1935 7.91524 10.431 8.23074 9.86848 8.79254L5.27848 13.3826C5.09218 13.5699 4.98768 13.8234 4.98768 14.0876C4.98768 14.3518 5.09218 14.6052 5.27848 14.7926Z"/>
    </svg>
    <svg xmlns="http://www.w3.org/2000/svg" id="chevron-bot" viewBox="0 0 24 24">
        <path d="M18.7098 8.20986C18.6169 8.11613 18.5063 8.04174 18.3844 7.99097C18.2625 7.9402 18.1318 7.91406 17.9998 7.91406C17.8678 7.91406 17.7371 7.9402 17.6152 7.99097C17.4934 8.04174 17.3828 8.11613 17.2898 8.20986L12.7098 12.7899C12.6169 12.8836 12.5063 12.958 12.3844 13.0088C12.2625 13.0595 12.1318 13.0857 11.9998 13.0857C11.8678 13.0857 11.7371 13.0595 11.6152 13.0088C11.4934 12.958 11.3828 12.8836 11.2898 12.7899L6.70982 8.20986C6.61685 8.11613 6.50625 8.04174 6.38439 7.99097C6.26253 7.9402 6.13183 7.91406 5.99982 7.91406C5.8678 7.91406 5.7371 7.9402 5.61524 7.99097C5.49338 8.04174 5.38278 8.11613 5.28982 8.20986C5.10356 8.39722 4.99902 8.65067 4.99902 8.91486C4.99902 9.17905 5.10356 9.4325 5.28982 9.61986L9.87982 14.2099C10.4423 14.7717 11.2048 15.0872 11.9998 15.0872C12.7948 15.0872 13.5573 14.7717 14.1198 14.2099L18.7098 9.61986C18.8961 9.4325 19.0006 9.17905 19.0006 8.91486C19.0006 8.65067 18.8961 8.39722 18.7098 8.20986Z"/>
    </svg>
</svg>