<svg width="40" height="41" viewBox="0 0 40 41" fill="none" xmlns="http://www.w3.org/2000/svg">
<path d="M27.4998 23.1778C27.4998 23.5462 27.3535 23.8995 27.093 24.1599C26.8326 24.4204 26.4793 24.5667 26.1109 24.5667H14.9998C14.6315 24.5667 14.2782 24.4204 14.0177 24.1599C13.7573 23.8995 13.6109 23.5462 13.6109 23.1778C13.6109 22.8095 13.7573 22.4562 14.0177 22.1957C14.2782 21.9353 14.6315 21.7889 14.9998 21.7889H26.1109C26.4793 21.7889 26.8326 21.9353 27.093 22.1957C27.3535 22.4562 27.4998 22.8095 27.4998 23.1778ZM21.9443 27.3445H14.9998C14.6315 27.3445 14.2782 27.4908 14.0177 27.7513C13.7573 28.0117 13.6109 28.365 13.6109 28.7334C13.6109 29.1017 13.7573 29.455 14.0177 29.7155C14.2782 29.9759 14.6315 30.1223 14.9998 30.1223H21.9443C22.3126 30.1223 22.6659 29.9759 22.9264 29.7155C23.1868 29.455 23.3332 29.1017 23.3332 28.7334C23.3332 28.365 23.1868 28.0117 22.9264 27.7513C22.6659 27.4908 22.3126 27.3445 21.9443 27.3445ZM34.4443 18.2959V30.1223C34.4421 31.9634 33.7097 33.7284 32.4078 35.0303C31.106 36.3321 29.3409 37.0645 27.4998 37.0667H13.6109C11.7698 37.0645 10.0048 36.3321 8.70292 35.0303C7.40106 33.7284 6.66871 31.9634 6.6665 30.1223V10.6778C6.66871 8.83673 7.40106 7.07167 8.70292 5.76981C10.0048 4.46796 11.7698 3.73561 13.6109 3.7334H19.8818C21.159 3.73011 22.4242 3.98005 23.6043 4.46876C24.7844 4.95747 25.8558 5.67526 26.7568 6.58062L31.5956 11.4223C32.5015 12.3226 33.2198 13.3937 33.7087 14.5736C34.1977 15.7535 34.4477 17.0187 34.4443 18.2959ZM24.7929 8.54451C24.3558 8.12112 23.865 7.7569 23.3332 7.46117V13.4556C23.3332 13.824 23.4795 14.1772 23.74 14.4377C24.0004 14.6982 24.3537 14.8445 24.722 14.8445H30.7165C30.4206 14.3128 30.0559 13.8225 29.6318 13.3862L24.7929 8.54451ZM31.6665 18.2959C31.6665 18.0667 31.622 17.8473 31.6012 17.6223H24.722C23.617 17.6223 22.5572 17.1833 21.7758 16.4019C20.9944 15.6205 20.5554 14.5607 20.5554 13.4556V6.57645C20.3304 6.55562 20.1095 6.51118 19.8818 6.51118H13.6109C12.5059 6.51118 11.4461 6.95016 10.6647 7.73156C9.88327 8.51296 9.44428 9.57277 9.44428 10.6778V30.1223C9.44428 31.2273 9.88327 32.2871 10.6647 33.0685C11.4461 33.8499 12.5059 34.2889 13.6109 34.2889H27.4998C28.6049 34.2889 29.6647 33.8499 30.4461 33.0685C31.2275 32.2871 31.6665 31.2273 31.6665 30.1223V18.2959Z" fill="black"/>
</svg>
