<svg width="60" height="60" viewBox="0 0 60 60" fill="none" xmlns="http://www.w3.org/2000/svg">
<rect width="60" height="60" rx="30" fill="#D61616"/>
<g clip-path="url(#clip0_2038_1042)">
<path d="M32.854 29.9995L45.7904 17.0638C45.9241 16.9299 45.9993 16.7484 45.9993 16.5592C45.9993 16.3699 45.9241 16.1884 45.7904 16.0545L43.9454 14.2085C43.8113 14.075 43.6297 14 43.4404 14C43.2511 14 43.0695 14.075 42.9354 14.2085L29.9994 27.1446L17.0633 14.2085C16.7953 13.9405 16.321 13.9409 16.0537 14.2085L14.209 16.0545C14.1428 16.1208 14.0902 16.1995 14.0543 16.2861C14.0185 16.3726 14 16.4655 14 16.5592C14 16.6529 14.0185 16.7457 14.0543 16.8323C14.0902 16.9189 14.1428 16.9976 14.209 17.0638L27.1451 29.9995L14.209 42.9353C14.1428 43.0015 14.0902 43.0802 14.0543 43.1668C14.0185 43.2534 14 43.3462 14 43.4399C14 43.5336 14.0185 43.6264 14.0543 43.713C14.0902 43.7996 14.1428 43.8783 14.209 43.9445L16.054 45.7905C16.1881 45.924 16.3696 45.9989 16.5588 45.9989C16.748 45.9989 16.9295 45.924 17.0636 45.7905L29.9997 32.8545L42.9358 45.7905C43.0696 45.924 43.2516 45.9995 43.4407 45.9995C43.6299 45.9995 43.8119 45.924 43.9457 45.7905L45.7907 43.9445C45.9245 43.8107 45.9996 43.6292 45.9996 43.4399C45.9996 43.2506 45.9245 43.0691 45.7907 42.9353L32.854 29.9995Z" fill="white"/>
</g>
<defs>
<clipPath id="clip0_2038_1042">
<rect width="32" height="32" fill="white" transform="translate(14 14)"/>
</clipPath>
</defs>
</svg>
