<svg width="38" height="25" viewBox="0 0 38 25" fill="none" xmlns="http://www.w3.org/2000/svg">
<path d="M19 24.7409C11.9812 24.7409 5.26094 19.577 0.824957 14.2161C0.0583478 13.2896 0.0583478 11.9446 0.824957 11.0182C1.94027 9.67028 4.27755 7.06981 7.39977 4.79712C15.2637 -0.926934 22.721 -0.937975 30.6002 4.79712C34.2682 7.46701 37.175 10.9681 37.175 11.0182C37.9417 11.9446 37.9417 13.2896 37.175 14.216C32.7397 19.5763 26.0204 24.7409 19 24.7409ZM19 2.8027C11.2247 2.8027 4.48459 10.2177 2.60411 12.4903C2.57465 12.526 2.55854 12.5709 2.55854 12.6171C2.55854 12.6634 2.57465 12.7082 2.60411 12.7439C4.48466 15.0166 11.2247 22.4316 19 22.4316C26.7753 22.4316 33.5154 15.0166 35.3959 12.7439C35.5055 12.6114 35.3887 12.4903 35.3959 12.4903C33.5153 10.2177 26.7753 2.8027 19 2.8027Z" fill="black"/>
<path d="M19.0004 20.6995C14.5438 20.6995 10.918 17.0737 10.918 12.617C10.918 8.16033 14.5438 4.53455 19.0004 4.53455C23.4571 4.53455 27.0829 8.16033 27.0829 12.617C27.0829 17.0737 23.4571 20.6995 19.0004 20.6995ZM19.0004 6.84383C15.8171 6.84383 13.2272 9.43368 13.2272 12.617C13.2272 15.8004 15.8171 18.3902 19.0004 18.3902C22.1838 18.3902 24.7736 15.8004 24.7736 12.617C24.7736 9.43368 22.1838 6.84383 19.0004 6.84383Z" fill="black"/>
</svg>
