<?xml version="1.0" encoding="utf-8"?><svg viewBox="0 0 152 132" xmlns="http://www.w3.org/2000/svg" xmlns:xlink="http://www.w3.org/1999/xlink">
    <style>:root>svg{display:none}:root>svg:target{display:block}</style>
    <svg id="close" xmlns="http://www.w3.org/2000/svg" viewBox="0 0 20 20" fill="none">
        <path d="M1.21338 19.127L19.1268 1.21356" stroke-width="2"/>
        <path d="M0.876465 1.21027L18.7899 19.1236" stroke-width="2"/>
    </svg>
    <svg id="ext-link" xmlns="http://www.w3.org/2000/svg" viewBox="0 0 24 24">
    <path fill-rule="evenodd" clip-rule="evenodd" d="M18.057 19.7559L3.13495 4.83378L4.83201 3.13672L19.7541 18.0588V3.98525H22.1541V22.1559H3.98348V19.7559H18.057Z"/>
    </svg>
    <svg id="del" xmlns="http://www.w3.org/2000/svg" viewBox="0 0 24 24">
        <path fill-rule="evenodd" clip-rule="evenodd" d="M5.19307 21.5274C5.36298 23.0663 6.66569 24.2625 8.24938 24.2625H15.7494C17.333 24.2625 18.6358 23.0663 18.8057 21.5274C18.8057 21.5273 18.8057 21.5273 18.8057 21.5273L20.6921 4.44428L18.3066 4.18086L16.4202 21.2639L16.4202 21.264C16.383 21.6002 16.0961 21.8625 15.7494 21.8625H8.24938C7.90268 21.8625 7.61569 21.6002 7.57858 21.264L7.57857 21.2639L5.69214 4.18086L3.30664 4.44428L5.19307 21.5273C5.19307 21.5273 5.19307 21.5273 5.19307 21.5274Z"/>
        <path fill-rule="evenodd" clip-rule="evenodd" d="M1.4248 5.51257H22.5747V3.11257H1.4248V5.51257Z"/>
        <path fill-rule="evenodd" clip-rule="evenodd" d="M7.0498 2.81257V4.31256H9.4498V2.81257C9.4498 2.43979 9.75203 2.13757 10.1248 2.13757H13.8748C14.2476 2.13757 14.5498 2.43979 14.5498 2.81257V4.31256H16.9498V2.81257C16.9498 1.11431 15.573 -0.262429 13.8748 -0.262429H10.1248C8.42654 -0.262429 7.0498 1.11431 7.0498 2.81257Z"/>
        <path fill-rule="evenodd" clip-rule="evenodd" d="M15.0748 18.375V9.00003H12.6748V18.375H15.0748Z"/>
        <path fill-rule="evenodd" clip-rule="evenodd" d="M11.3248 18.375V9.00003H8.9248V18.375H11.3248Z"/>
    </svg>
    <svg id="chevron-top" xmlns="http://www.w3.org/2000/svg" viewBox="0 0 24 24">
        <path d="M5.27848 14.7926C5.37138 14.8863 5.48198 14.9607 5.60388 15.0115C5.72578 15.0622 5.85648 15.0884 5.98848 15.0884C6.12048 15.0884 6.25118 15.0622 6.37308 15.0115C6.49488 14.9607 6.60548 14.8863 6.69848 14.7926L11.2785 10.2125C11.3714 10.1188 11.482 10.0444 11.6039 9.99364C11.7258 9.94294 11.8565 9.91674 11.9885 9.91674C12.1205 9.91674 12.2512 9.94294 12.3731 9.99364C12.4949 10.0444 12.6055 10.1188 12.6985 10.2125L17.2785 14.7926C17.3714 14.8863 17.482 14.9607 17.6039 15.0115C17.7257 15.0622 17.8564 15.0884 17.9885 15.0884C18.1205 15.0884 18.2512 15.0622 18.373 15.0115C18.4949 14.9607 18.6055 14.8863 18.6985 14.7926C18.8847 14.6052 18.9893 14.3518 18.9893 14.0876C18.9893 13.8234 18.8847 13.5699 18.6985 13.3826L14.1085 8.79254C13.546 8.23074 12.7835 7.91524 11.9885 7.91524C11.1935 7.91524 10.431 8.23074 9.86848 8.79254L5.27848 13.3826C5.09218 13.5699 4.98768 13.8234 4.98768 14.0876C4.98768 14.3518 5.09218 14.6052 5.27848 14.7926Z"/>
    </svg>
    <svg id="chevron-bot" xmlns="http://www.w3.org/2000/svg" viewBox="0 0 24 24">
        <path d="M18.7098 8.20986C18.6169 8.11613 18.5063 8.04174 18.3844 7.99097C18.2625 7.9402 18.1318 7.91406 17.9998 7.91406C17.8678 7.91406 17.7371 7.9402 17.6152 7.99097C17.4934 8.04174 17.3828 8.11613 17.2898 8.20986L12.7098 12.7899C12.6169 12.8836 12.5063 12.958 12.3844 13.0088C12.2625 13.0595 12.1318 13.0857 11.9998 13.0857C11.8678 13.0857 11.7371 13.0595 11.6152 13.0088C11.4934 12.958 11.3828 12.8836 11.2898 12.7899L6.70982 8.20986C6.61685 8.11613 6.50625 8.04174 6.38439 7.99097C6.26253 7.9402 6.13183 7.91406 5.99982 7.91406C5.8678 7.91406 5.7371 7.9402 5.61524 7.99097C5.49338 8.04174 5.38278 8.11613 5.28982 8.20986C5.10356 8.39722 4.99902 8.65067 4.99902 8.91486C4.99902 9.17905 5.10356 9.4325 5.28982 9.61986L9.87982 14.2099C10.4423 14.7717 11.2048 15.0872 11.9998 15.0872C12.7948 15.0872 13.5573 14.7717 14.1198 14.2099L18.7098 9.61986C18.8961 9.4325 19.0006 9.17905 19.0006 8.91486C19.0006 8.65067 18.8961 8.39722 18.7098 8.20986Z"/>
    </svg>
    <svg id="plus" xmlns="http://www.w3.org/2000/svg" viewBox="0 0 24 24" >
        <path d="M13.4086 10.5913V1.2H10.5913V10.5913H1.19995V13.4087H10.5913V22.8H13.4086V13.4087H22.7999V10.5913H13.4086Z"/>
    </svg>
    <svg id="download" xmlns="http://www.w3.org/2000/svg" viewBox="0 0 24 24">
        <path fill-rule="evenodd" clip-rule="evenodd" d="M31 24H-7V21.6H31V24Z"/>
        <path fill-rule="evenodd" clip-rule="evenodd" d="M22.117 9.64589L11.8711 19.8918L1.62523 9.64589L3.32229 7.94883L10.6711 15.2976L10.6711 0.937252H13.0711L13.0711 15.2976L20.4199 7.94883L22.117 9.64589Z"/>
    </svg>
    <svg id="file-download" xmlns="http://www.w3.org/2000/svg" viewBox="0 0 40 40" fill="none">
        <line y1="-2" x2="40" y2="-2" transform="matrix(1 0 0 -1 1 0.0527344)" stroke-width="4"/>
        <path d="M19.7852 38.438V9.67555M19.7852 9.67555L35.4474 25.3378M19.7852 9.67555L4.12293 25.3378" stroke-width="4"/>
    </svg>
</svg>