<svg width="38" height="29" viewBox="0 0 38 29" fill="none" xmlns="http://www.w3.org/2000/svg">
<path d="M23.6555 14.6283L25.7854 12.4984C25.9404 13.0782 26.0312 13.6843 26.0312 14.3125C26.0312 18.1896 22.8771 21.3437 19 21.3437C18.3719 21.3437 17.7657 21.2529 17.1859 21.0979L19.3158 18.968C20.4416 18.8916 21.5015 18.4098 22.2994 17.6119C23.0973 16.814 23.5791 15.7541 23.6555 14.6283ZM37.6023 13.7432C37.4582 13.4839 35.4139 9.90181 31.4178 6.86607L29.7124 8.57144C32.6263 10.7139 34.4725 13.2127 35.1994 14.3142C33.8104 16.4292 28.3618 23.6875 19 23.6875C17.5961 23.6875 16.2906 23.5079 15.0622 23.2213L13.1365 25.147C14.9069 25.6899 16.8528 26.0312 19 26.0312C31.2675 26.0312 37.3495 15.3367 37.6023 14.8817C37.6992 14.7076 37.75 14.5117 37.75 14.3125C37.75 14.1132 37.6992 13.9173 37.6023 13.7432ZM32.7191 2.25034L6.93786 28.0316C6.70905 28.2604 6.40905 28.375 6.10934 28.375C5.80964 28.375 5.50964 28.2604 5.28083 28.0316C5.17194 27.9229 5.08556 27.7937 5.02663 27.6515C4.96769 27.5094 4.93736 27.357 4.93736 27.2031C4.93736 27.0492 4.96769 26.8968 5.02663 26.7546C5.08556 26.6125 5.17194 26.4833 5.28083 26.3746L8.56091 23.0945C3.25817 19.8932 0.563736 15.1808 0.397623 14.8817C0.300808 14.7075 0.25 14.5116 0.25 14.3123C0.25 14.1131 0.300808 13.9171 0.397623 13.7429C0.650455 13.2882 6.73249 2.5937 19 2.5937C22.1719 2.5937 24.9194 3.31734 27.2681 4.38726L31.0621 0.593311C31.52 0.1354 32.2615 0.1354 32.7191 0.593311C33.1767 1.05122 33.177 1.79272 32.7191 2.25034ZM10.3085 21.3469L13.2754 18.38C12.4559 17.2304 11.9687 15.8286 11.9687 14.3125C11.9687 10.4353 15.1228 7.2812 19 7.2812C20.5161 7.2812 21.9179 7.76841 23.0676 8.58755L25.4667 6.18843C23.5712 5.42935 21.4173 4.93745 19 4.93745C9.63815 4.93745 4.18952 12.1958 2.80085 14.3107C3.68268 15.6472 6.21745 19.0304 10.3085 21.3469ZM14.9766 16.6785L21.366 10.2891C20.669 9.87749 19.8666 9.62496 19 9.62496C16.4154 9.62496 14.3125 11.7279 14.3125 14.3125C14.3125 15.1791 14.565 15.9815 14.9766 16.6785Z" fill="black"/>
</svg>
