<svg width="60" height="60" viewBox="0 0 60 60" fill="none" xmlns="http://www.w3.org/2000/svg">
<g clip-path="url(#clip0_2521_201)">
<g clip-path="url(#clip1_2521_201)">
<path d="M0 28.8C0 15.22 0 8.44 4.2 4.2C8.46 0 15.24 0 28.8 0H31.2C44.78 0 51.56 0 55.8 4.2C60 8.46 60 15.24 60 28.8V31.2C60 44.78 60 51.56 55.8 55.8C51.54 60 44.76 60 31.2 60H28.8C15.22 60 8.44 60 4.2 55.8C0 51.54 0 44.76 0 31.2V28.8Z" fill="#0077FF"/>
<path d="M31.9206 43.22C18.2406 43.22 10.4406 33.86 10.1206 18.26H17.0006C17.2206 29.7 22.2606 34.54 26.2606 35.54V18.26H32.7206V28.12C36.6606 27.7 40.8206 23.2 42.2206 18.24H48.6606C48.1355 20.8075 47.0866 23.2392 45.5793 25.3831C44.0721 27.5269 42.1389 29.3369 39.9006 30.7C42.3985 31.9432 44.6044 33.7019 46.3729 35.86C48.1414 38.0181 49.4324 40.5265 50.1606 43.22H43.0606C41.5406 38.48 37.7406 34.8 32.7206 34.3V43.22H31.9406H31.9206Z" fill="white"/>
</g>
</g>
<defs>
<clipPath id="clip0_2521_201">
<rect width="60" height="60" rx="30" fill="white"/>
</clipPath>
<clipPath id="clip1_2521_201">
<rect width="60" height="60" fill="white"/>
</clipPath>
</defs>
</svg>
